<mxGraphModel dx="1265" dy="914" grid="1" gridSize="10" guides="1" tooltips="1" connect="1" arrows="1" fold="1" page="1" pageScale="1" pageWidth="827" pageHeight="1169" math="0" shadow="0"><root><mxCell id="WIyWlLk6GJQsqaUBKTNV-0"/><mxCell id="WIyWlLk6GJQsqaUBKTNV-1" parent="WIyWlLk6GJQsqaUBKTNV-0"/><mxCell id="3UeJ8pfMHDwTq8UAorVS-2" value="" style="rounded=0;whiteSpace=wrap;html=1;strokeColor=none;" parent="WIyWlLk6GJQsqaUBKTNV-1" vertex="1"><mxGeometry x="-230" y="100" width="750" height="640" as="geometry"/></mxCell><mxCell id="2" style="edgeStyle=none;html=1;exitX=1;exitY=0.5;exitDx=0;exitDy=0;entryX=0;entryY=0.5;entryDx=0;entryDy=0;" parent="WIyWlLk6GJQsqaUBKTNV-1" source="0" target="1" edge="1"><mxGeometry relative="1" as="geometry"/></mxCell><mxCell id="0" value="引入需要的“包类”名称" style="rounded=0;whiteSpace=wrap;html=1;" parent="WIyWlLk6GJQsqaUBKTNV-1" vertex="1"><mxGeometry x="-70" y="180" width="130" height="40" as="geometry"/></mxCell><mxCell id="4" style="edgeStyle=none;html=1;exitX=1;exitY=0.5;exitDx=0;exitDy=0;entryX=0;entryY=0.5;entryDx=0;entryDy=0;" parent="WIyWlLk6GJQsqaUBKTNV-1" source="1" target="3" edge="1"><mxGeometry relative="1" as="geometry"/></mxCell><mxCell id="1" value="通过new实例化" style="rounded=0;whiteSpace=wrap;html=1;" parent="WIyWlLk6GJQsqaUBKTNV-1" vertex="1"><mxGeometry x="120" y="180" width="130" height="40" as="geometry"/></mxCell><mxCell id="3" value="取得实例化对象" style="rounded=0;whiteSpace=wrap;html=1;" parent="WIyWlLk6GJQsqaUBKTNV-1" vertex="1"><mxGeometry x="310" y="180" width="130" height="40" as="geometry"/></mxCell><mxCell id="5" style="edgeStyle=none;html=1;exitX=1;exitY=0.5;exitDx=0;exitDy=0;entryX=0;entryY=0.5;entryDx=0;entryDy=0;" parent="WIyWlLk6GJQsqaUBKTNV-1" source="6" target="8" edge="1"><mxGeometry relative="1" as="geometry"/></mxCell><mxCell id="6" value="实例化对象" style="rounded=0;whiteSpace=wrap;html=1;" parent="WIyWlLk6GJQsqaUBKTNV-1" vertex="1"><mxGeometry x="-70" y="280" width="130" height="40" as="geometry"/></mxCell><mxCell id="7" style="edgeStyle=none;html=1;exitX=1;exitY=0.5;exitDx=0;exitDy=0;entryX=0;entryY=0.5;entryDx=0;entryDy=0;" parent="WIyWlLk6GJQsqaUBKTNV-1" source="8" target="9" edge="1"><mxGeometry relative="1" as="geometry"/></mxCell><mxCell id="8" value="getClass()方法" style="rounded=0;whiteSpace=wrap;html=1;" parent="WIyWlLk6GJQsqaUBKTNV-1" vertex="1"><mxGeometry x="120" y="280" width="130" height="40" as="geometry"/></mxCell><mxCell id="9" value="得到完整的“包类”名称" style="rounded=0;whiteSpace=wrap;html=1;" parent="WIyWlLk6GJQsqaUBKTNV-1" vertex="1"><mxGeometry x="310" y="280" width="130" height="40" as="geometry"/></mxCell><mxCell id="10" value="正常方式：" style="text;html=1;align=center;verticalAlign=middle;resizable=0;points=[];autosize=1;strokeColor=none;" parent="WIyWlLk6GJQsqaUBKTNV-1" vertex="1"><mxGeometry x="-170" y="190" width="80" height="20" as="geometry"/></mxCell><mxCell id="11" value="反射方式：" style="text;html=1;align=center;verticalAlign=middle;resizable=0;points=[];autosize=1;strokeColor=none;" parent="WIyWlLk6GJQsqaUBKTNV-1" vertex="1"><mxGeometry x="-170" y="290" width="80" height="20" as="geometry"/></mxCell><mxCell id="12" value="" style="rounded=0;whiteSpace=wrap;html=1;" vertex="1" parent="WIyWlLk6GJQsqaUBKTNV-1"><mxGeometry x="110" y="430" width="120" height="60" as="geometry"/></mxCell><mxCell id="23" style="edgeStyle=orthogonalEdgeStyle;rounded=0;html=1;exitX=0.5;exitY=0;exitDx=0;exitDy=0;entryX=0.5;entryY=1;entryDx=0;entryDy=0;endArrow=none;endFill=0;" edge="1" parent="WIyWlLk6GJQsqaUBKTNV-1" source="14" target="12"><mxGeometry relative="1" as="geometry"><Array as="points"><mxPoint x="320" y="510"/><mxPoint x="170" y="510"/></Array></mxGeometry></mxCell><mxCell id="14" value="Triangle" style="rounded=0;whiteSpace=wrap;html=1;" vertex="1" parent="WIyWlLk6GJQsqaUBKTNV-1"><mxGeometry x="260" y="540" width="120" height="60" as="geometry"/></mxCell><mxCell id="22" style="edgeStyle=orthogonalEdgeStyle;rounded=0;html=1;exitX=0.5;exitY=0;exitDx=0;exitDy=0;endArrow=none;endFill=0;" edge="1" parent="WIyWlLk6GJQsqaUBKTNV-1" source="15"><mxGeometry relative="1" as="geometry"><mxPoint x="170" y="500" as="targetPoint"/></mxGeometry></mxCell><mxCell id="15" value="Square" style="rounded=0;whiteSpace=wrap;html=1;" vertex="1" parent="WIyWlLk6GJQsqaUBKTNV-1"><mxGeometry x="110" y="540" width="120" height="60" as="geometry"/></mxCell><mxCell id="21" style="edgeStyle=none;html=1;exitX=0.5;exitY=0;exitDx=0;exitDy=0;entryX=0.5;entryY=1;entryDx=0;entryDy=0;endArrow=classic;endFill=1;rounded=0;" edge="1" parent="WIyWlLk6GJQsqaUBKTNV-1" source="16" target="12"><mxGeometry relative="1" as="geometry"><Array as="points"><mxPoint x="20" y="510"/><mxPoint x="170" y="510"/></Array></mxGeometry></mxCell><mxCell id="16" value="Circle" style="rounded=0;whiteSpace=wrap;html=1;" vertex="1" parent="WIyWlLk6GJQsqaUBKTNV-1"><mxGeometry x="-40" y="540" width="120" height="60" as="geometry"/></mxCell><mxCell id="17" style="edgeStyle=none;html=1;exitX=0;exitY=0.5;exitDx=0;exitDy=0;entryX=1;entryY=0.5;entryDx=0;entryDy=0;endArrow=none;endFill=0;" edge="1" parent="WIyWlLk6GJQsqaUBKTNV-1" source="12" target="12"><mxGeometry relative="1" as="geometry"/></mxCell><mxCell id="18" value="Shape" style="text;html=1;align=center;verticalAlign=middle;resizable=0;points=[];autosize=1;strokeColor=none;" vertex="1" parent="WIyWlLk6GJQsqaUBKTNV-1"><mxGeometry x="145" y="434" width="50" height="20" as="geometry"/></mxCell><mxCell id="19" value="draw()" style="text;html=1;align=center;verticalAlign=middle;resizable=0;points=[];autosize=1;strokeColor=none;" vertex="1" parent="WIyWlLk6GJQsqaUBKTNV-1"><mxGeometry x="145" y="465" width="50" height="20" as="geometry"/></mxCell></root></mxGraphModel>